<?xml version="1.0" standalone="no"?>
<!DOCTYPE svg PUBLIC "-//W3C//DTD SVG 20010904//EN"
 "http://www.w3.org/TR/2001/REC-SVG-20010904/DTD/svg10.dtd">
<svg version="1.0" xmlns="http://www.w3.org/2000/svg"
 width="512.000000pt" height="512.000000pt" viewBox="0 0 512.000000 512.000000"
 preserveAspectRatio="xMidYMid meet">

<g transform="translate(0.000000,512.000000) scale(0.100000,-0.100000)"
fill="#000000" stroke="none">
<path d="M1233 4210 c-359 -185 -619 -428 -695 -648 -18 -52 -23 -88 -22 -162
0 -81 14 -183 31 -226 2 -7 -17 -14 -53 -18 -69 -8 -145 -47 -180 -93 -50 -66
-54 -88 -54 -301 l0 -199 -41 -7 c-79 -13 -152 -66 -192 -141 -22 -40 -22 -42
-22 -710 l0 -670 22 -41 c25 -48 81 -100 132 -123 33 -15 239 -16 2401 -16
2162 0 2368 1 2401 16 51 23 107 75 132 123 l22 41 0 670 0 670 -22 41 c-36
68 -106 122 -174 136 l-59 12 0 198 c0 213 -4 235 -54 301 -35 46 -111 85
-180 93 -36 4 -55 11 -53 18 17 43 31 145 31 226 1 74 -4 110 -22 162 -60 173
-223 351 -479 522 -106 70 -322 186 -348 186 -26 0 -235 -112 -340 -183 -55
-36 -136 -95 -179 -131 l-79 -64 -56 47 c-92 76 -219 165 -323 224 -102 59
-201 107 -220 107 -23 0 -217 -104 -323 -174 -60 -40 -147 -102 -191 -138
l-82 -66 -78 65 c-44 35 -124 94 -178 130 -105 70 -315 183 -341 183 -8 0 -68
-27 -132 -60z m392 -275 c61 -41 134 -96 164 -123 l55 -48 -26 -35 c-36 -48
-73 -124 -94 -194 -23 -77 -23 -239 0 -310 9 -27 16 -53 16 -57 0 -5 -227 -8
-505 -8 l-504 0 -16 53 c-66 219 -30 350 145 526 98 98 218 187 386 283 l117
68 76 -41 c42 -23 126 -74 186 -114z m1034 99 c105 -57 204 -123 304 -204 l76
-61 -40 -60 c-90 -132 -122 -320 -81 -477 l19 -72 -506 2 -505 3 -20 60 c-14
43 -20 90 -20 165 -1 100 1 109 33 175 44 89 195 243 331 337 107 74 288 178
309 178 8 0 53 -21 100 -46z m1203 -5 c259 -144 466 -325 536 -471 45 -92 47
-204 7 -345 l-16 -53 -633 0 -634 0 -16 48 c-23 71 -39 189 -31 241 21 150
167 318 420 486 112 74 240 145 262 145 7 0 55 -23 105 -51z m803 -1074 c25
-24 25 -26 25 -210 l0 -185 -2130 0 -2130 0 0 184 c0 170 1 185 21 210 l20 26
2085 0 2085 0 24 -25z"/>
</g>
</svg>
